<svg preserveAspectRatio="none" width="100%" height="100%" overflow="visible" style="display: block;" viewBox="0 0 134.159 177.615" fill="none" xmlns="http://www.w3.org/2000/svg">
<g id="Ellipse 4">
<mask id="path-1-inside-1_71_93" fill="white">
<path d="M134.159 177.614C134.159 139.645 122.93 102.523 101.885 70.9188C80.8396 39.3149 50.9179 14.6406 15.8841 8.01162e-08L5.63537e-06 38.0095C27.5366 49.517 51.055 68.911 67.5966 93.7517C84.1382 118.592 92.9642 147.77 92.9642 177.614H134.159Z"/>
</mask>
<path d="M134.159 177.614C134.159 139.645 122.93 102.523 101.885 70.9188C80.8396 39.3149 50.9179 14.6406 15.8841 8.01162e-08L5.63537e-06 38.0095C27.5366 49.517 51.055 68.911 67.5966 93.7517C84.1382 118.592 92.9642 147.77 92.9642 177.614H134.159Z" fill="var(--fill-0, #7DE0CB)" stroke="var(--stroke-0, #202020)" stroke-width="4" mask="url(#path-1-inside-1_71_93)"/>
</g>
</svg>
