<svg preserveAspectRatio="none" width="100%" height="100%" overflow="visible" style="display: block;" viewBox="0 0 234.493 192.5" fill="none" xmlns="http://www.w3.org/2000/svg">
<g id="Ellipse 2">
<mask id="path-1-inside-1_71_85" fill="white">
<path d="M234.493 192.5C234.493 163.654 228.01 135.176 215.523 109.172C203.036 83.1682 184.864 60.3032 162.352 42.2671C139.839 24.2311 113.561 11.4852 85.4593 4.97162C57.3579 -1.54195 28.1518 -1.65664 7.61677e-06 4.63602L8.98642 44.8389C31.1137 39.8929 54.0697 39.983 76.1574 45.1027C98.2452 50.2224 118.9 60.2406 136.595 74.417C154.29 88.5933 168.573 106.565 178.387 127.004C188.202 147.443 193.298 169.827 193.298 192.5H234.493Z"/>
</mask>
<path d="M234.493 192.5C234.493 163.654 228.01 135.176 215.523 109.172C203.036 83.1682 184.864 60.3032 162.352 42.2671C139.839 24.2311 113.561 11.4852 85.4593 4.97162C57.3579 -1.54195 28.1518 -1.65664 7.61677e-06 4.63602L8.98642 44.8389C31.1137 39.8929 54.0697 39.983 76.1574 45.1027C98.2452 50.2224 118.9 60.2406 136.595 74.417C154.29 88.5933 168.573 106.565 178.387 127.004C188.202 147.443 193.298 169.827 193.298 192.5H234.493Z" fill="var(--fill-0, #8347B9)" stroke="var(--stroke-0, #202020)" stroke-width="4" mask="url(#path-1-inside-1_71_85)"/>
</g>
</svg>
