<svg preserveAspectRatio="none" width="100%" height="100%" overflow="visible" style="display: block;" viewBox="0 0 186.797 192.363" fill="none" xmlns="http://www.w3.org/2000/svg">
<g id="Ellipse 3">
<mask id="path-1-inside-1_71_95" fill="white">
<path d="M186.797 192.363C186.797 142.565 167.499 94.7049 132.957 58.835C98.4142 22.965 51.3152 1.87689 1.55264 3.5921e-09L-7.51713e-06 41.1657C39.1134 42.641 76.1332 59.2162 103.284 87.41C130.434 115.604 145.602 153.222 145.602 192.363H186.797Z"/>
</mask>
<path d="M186.797 192.363C186.797 142.565 167.499 94.7049 132.957 58.835C98.4142 22.965 51.3152 1.87689 1.55264 3.5921e-09L-7.51713e-06 41.1657C39.1134 42.641 76.1332 59.2162 103.284 87.41C130.434 115.604 145.602 153.222 145.602 192.363H186.797Z" fill="var(--fill-0, #DD4425)" stroke="var(--stroke-0, #202020)" stroke-width="4" mask="url(#path-1-inside-1_71_95)"/>
</g>
</svg>
