<svg preserveAspectRatio="none" width="100%" height="100%" overflow="visible" style="display: block;" viewBox="0 0 169.77 190.315" fill="none" xmlns="http://www.w3.org/2000/svg">
<g id="Ellipse 5">
<mask id="path-1-inside-1_71_89" fill="white">
<path d="M169.77 190.315C169.77 144.273 153.267 99.7546 123.255 64.8375C93.2425 29.9203 51.7089 6.91682 6.18854 6.76729e-08L1.25284e-06 40.7275C35.779 46.1641 68.4244 64.2449 92.0141 91.6898C115.604 119.135 128.575 154.126 128.575 190.315H169.77Z"/>
</mask>
<path d="M169.77 190.315C169.77 144.273 153.267 99.7546 123.255 64.8375C93.2425 29.9203 51.7089 6.91682 6.18854 6.76729e-08L1.25284e-06 40.7275C35.779 46.1641 68.4244 64.2449 92.0141 91.6898C115.604 119.135 128.575 154.126 128.575 190.315H169.77Z" fill="var(--fill-0, #0588F0)" stroke="var(--stroke-0, #202020)" stroke-width="4" mask="url(#path-1-inside-1_71_89)"/>
</g>
</svg>
